<svg xmlns="http://www.w3.org/2000/svg" width="442.569" height="358.887" data-name="new york knicks" viewBox="0 0 442.569 358.887"><path fill="#fff" d="M220.7,358.884l-29.388-38.146a95.889,95.889,0,0,1-65.782-85.244l-18.294-23.549a247.131,247.131,0,0,0-34.643,19.267L18.1,176.523l22.965-50.6L0,72.4H65.393l12.65-27.636,32.5-13.04,3.5-9.731,26.274,11.872,6.228-21.8,4.282-1.362A220.01,220.01,0,0,1,220.117,0h8.758c.778,0,4.476.389,4.476.389a217.658,217.658,0,0,1,58,10.12l4.282,1.362L301.274,32.7l9.536-7.006,53.326,18.684L376.787,72.4h65.782l-41.454,53.521,22.576,49.823-55.467,57.024s-20.241-14.791-34.253-20.241l-16.737,21.408A96.711,96.711,0,0,1,249.7,321.322Z" data-name="Path 3888" transform="translate(0 .003)"/><path fill="#b3b2b1" d="M208.164,298.461,397.336,54.6H20.16Z" data-name="Path 3889" transform="translate(12.536 33.958)"/><path fill="#006bb6" d="M403.231,57.51,214.059,301.371,26.055,57.51ZM10.68,49.92l203.379,264.1L418.8,49.92Z" data-name="Path 3890" transform="translate(6.641 31.047)"/><path fill="#006bb6" d="M371.731,92.65l-.389-.195-12.067-8.174,4.476-8.563.195-.389-.195-.195L347.014,38.545v-.195l-.195-.195L302.056,22.2h-.389l-.195.195L289.6,31.539h-.195v.195l-1.946,5.06a400.573,400.573,0,0,0-46.125-7.4c-2.725-.195-10.12-.778-21.992-1.752l-1.168-.195h-1.557L207.47,36.4V27.452s-25.106,1.168-41.649,3.5c-16.348,2.335-32.5,6.423-32.5,6.423l-3.114-6.423-.195-.195-.195-.195L108.6,20.835l-.584-.195-.195.584-2.335,6.812-.584-1.362-.195-.584-.584.389L73.766,38.545l-.195.195h-.195l-55.856,123,45.736,45.931,2.335-1.168c1.168-.778,3.114-1.946,5.449-3.309,5.644-3.309,13.234-7.785,16.932-9.536l.584-.389c4.671-2.335,7.2-3.309,29.388-13.04l1.946-.778s2.53-.973,7.006-2.53c12.261-3.892,44.179-13.429,75.124-13.429h3.892c21.214.584,45.541,5.06,62.473,8.563,16.154,3.5,28.415,6.812,31.918,7.785l2.335.778a320.472,320.472,0,0,1,51.38,26.858l2.335,1.168,46.514-47.682Z" data-name="Path 3891" transform="translate(10.895 12.84)"/><path fill="#ff671b" d="M259.991,93.5,215.423,63.722l-7.59-21.8,13.623,5.06L227.1,60.608l21.019,6.617L235.858,40.173l-39.7-14.013-7.4,5.644,13.234,43.011,42.427,29.972,10.7,27.052-17.711-7.979-6.033-16.932-21.6-6.423,11.677,38.34c3.5,1.168,7.006,2.53,10.51,3.892,9.536,3.892,19.073,8.369,28.415,12.845,6.423,3.309,12.65,6.812,18.878,10.51l9.147-9.536Z" data-name="Path 3892" transform="translate(117.379 16.272)"/><path fill="#ff671b" d="M62.561,113.963l14.791-13.234,3.5,4.087-14.6,42.233c8.174-3.5,16.154-6.812,24.522-9.731l10.51-34.837L92.144,87.3l18.878-18.1L122.31,32.028,108.686,25.8,96.425,60.832,76.574,77.764,94.479,32.612,75.212,40.4,22.08,156.975l8.369,8.369c5.06-2.919,9.926-5.644,14.986-8.174Z" data-name="Path 3893" transform="translate(13.73 16.049)"/><path fill="#ff671b" d="M139.258,28.8l-16.154.973-7.785,87.58c7.006-.584,14.013-1.168,21.019-1.362Z" data-name="Path 3894" transform="translate(71.711 17.914)"/><path fill="#ff671b" d="M174.959,99.058l-19.073-1.168L152.772,44.37l16.154.584-1.946-14.791-21.6-1.362-9.536,9.536v66.95l10.12,10.51a269.138,269.138,0,0,1,30.945,2.335Z" data-name="Path 3895" transform="translate(84.471 17.914)"/><path fill="#ff671b" d="M107.226,62.7l6.812,33.28-4.282,25.106c6.617-1.168,13.234-2.335,19.851-3.114L140.117,30l-15.18,2.335-5.06,28.609-5.449-26.663L96.522,38.563,72,130.619c7.006-2.335,14.4-4.282,21.6-6.033Z" data-name="Path 3896" transform="translate(44.773 18.66)"/><path fill="#ff671b" d="M185.258,93.492l5.255-7.2,7.785,6.423,7.2,32.5c7.4,1.946,14.986,4.087,22.187,6.423L214.451,83.955,200.633,72.667l7.785-10.51L201.8,37.83l-16.543-3.7,6.617,24.522L181.56,72.278l-7.785-40.092L158.4,30.24s7.59,58.97,11.483,87.969c6.812.973,13.818,2.141,20.824,3.5Z" data-name="Path 3897" transform="translate(98.5 18.81)"/><path fill="#b3b2b1" d="M117.581,99.5S124,95.6,136.848,94.24l-.389-10.12c-7.006.195-14.013.584-21.019,1.362C116.024,89.375,117,95.408,117.581,99.5Z" data-name="Path 3898" transform="translate(71.786 52.315)"/><path fill="#b3b2b1" d="M141.96,93.731a142.092,142.092,0,0,1,15.764,3.5,74.156,74.156,0,0,1,13.04,4.671l2.335-15.57c-10.51-1.168-20.241-1.946-30.75-2.335C142.155,87.309,142.155,91.59,141.96,93.731Z" data-name="Path 3899" transform="translate(88.277 52.24)"/><path fill="#b3b2b1" d="M103.529,117.329c5.839-4.476,9.536-9.147,15.764-13.04-1.168-5.644-2.725-13.04-3.892-18.489-6.812.778-13.623,1.946-20.241,3.309C97.69,97.672,101,108.765,103.529,117.329Z" data-name="Path 3900" transform="translate(59.175 53.359)"/><path fill="#b3b2b1" d="M162.96,104.14A75.638,75.638,0,0,1,178.53,116.4l.973.778,8.369-27.247c-7.2-1.557-14.013-2.919-21.214-3.892Z" data-name="Path 3901" transform="translate(101.336 53.508)"/><path fill="#b3b2b1" d="M178.92,124.928l19.657,4.476,16.348-32.5c-7.4-2.53-14.986-4.476-22.576-6.423Z" data-name="Path 3902" transform="translate(111.26 56.269)"/><path fill="#b3b2b1" d="M87.884,129.777c5.06-1.946,12.261-4.282,18.878-6.228L94.112,89.88c-7.785,1.946-14.6,3.7-21.992,6.228C76.986,107.4,82.24,119.073,87.884,129.777Z" data-name="Path 3903" transform="translate(44.847 55.896)"/><path fill="#b3b2b1" d="M72.451,138.009c.973-.973,12.261-5.839,19.851-9.147-5.839-10.315-12.845-21.992-18.489-32.5-8.563,2.919-15.959,6.033-24.133,9.536Z" data-name="Path 3904" transform="translate(30.893 59.926)"/><path fill="#b3b2b1" d="M57.753,145.367c3.5-2.336,7.4-4.282,11.483-6.812L43.351,108c-5.06,2.53-9.926,5.255-14.791,8.174Z" data-name="Path 3905" transform="translate(17.76 67.164)"/><path fill="#b3b2b1" d="M197.28,129.462A301.79,301.79,0,0,1,243.405,153.4c4.087-3.7,25.69-26.468,28.8-29.582A358.847,358.847,0,0,0,215.574,96.96Z" data-name="Path 3906" transform="translate(122.677 60.299)"/><path fill="#b3b2b1" d="M143.145,96.654l-7.59-.195-.195-18.1,7.785,8.174Z" data-name="Path 3907" transform="translate(84.173 48.733)"/><path fill="#006bb6" d="M170.14,87.48a87.385,87.385,0,1,0,.007,0Z" data-name="Path 3908" transform="translate(51.339 54.404)"/><path fill="#ff671b" d="M151.262,91.607a177.708,177.708,0,0,0-19.657,8.758c-4.282-2.725-6.812-3.309-9.926-5.255C130.827,91.607,140.948,91.217,151.262,91.607Z" data-name="Path 3909" transform="translate(75.666 56.894)"/><path fill="#ff671b" d="M208.409,128.285c-20.63-20.824-51.575-19.268-77.849-26.663,0,0,15.57-7.2,23.355-9.342C175.518,95.978,196.342,108.628,208.409,128.285Z" data-name="Path 3910" transform="translate(81.188 57.389)"/><path fill="#ff671b" d="M119.721,116.467A101.144,101.144,0,0,0,113.1,217.086c-20.435-16.932-32.5-50.407-23.355-82.52C97.145,124.057,106.876,114.91,119.721,116.467Z" data-name="Path 3911" transform="translate(53.881 72.321)"/><path fill="#ff671b" d="M133.173,137.824c10.7,31.723,13.04,66.755,40.87,98.868-21.8,4.282-43.011-2.336-59.943-13.04C92.886,192.9,94.833,146.972,116.046,117,126.167,120.114,131.811,133.543,133.173,137.824Z" data-name="Path 3912" transform="translate(61.643 72.761)"/><path fill="#ff671b" d="M111,119.81a83.305,83.305,0,0,1,10.9-12.65c44.763,12.65,87.58,59.165,94.975,104.9-2.141,3.309-7.2,8.174-10.7,11.677a81.469,81.469,0,0,1-35.226,18.1c-21.019-21.8-27.831-50.018-35.227-77.849C130.073,142.581,126.18,126.428,111,119.81Z" data-name="Path 3913" transform="translate(69.025 66.642)"/><path fill="#ff671b" d="M210.408,124.615c-21.6-19.073-51.769-16.543-77.07-25.5a110.109,110.109,0,0,0-13.818,10.12c44.958,14.013,85.633,58,95.364,103.344a79.841,79.841,0,0,0,13.04-34.448C228.9,158.869,228.9,141.353,210.408,124.615Z" data-name="Path 3914" transform="translate(74.323 61.642)"/><path fill="#ff671b" d="M130.663,107.17a96.8,96.8,0,0,0-10.9,13.04h-.195c-11.872-2.725-21.214,3.5-28.609,11.288a74.87,74.87,0,0,1,19.073-26.858C117.234,104.835,122.683,104.835,130.663,107.17Z" data-name="Path 3915" transform="translate(56.563 65.075)"/><path fill="#ff671b" d="M124.9,110.564a100.978,100.978,0,0,1,13.429-10.12L126.843,94.8c-7.785,3.114-15.959,7.2-21.6,12.261a102.071,102.071,0,0,1,19.657,3.5Z" data-name="Path 3916" transform="translate(65.443 58.956)"/><path fill="#006bb6" d="M138.208,31.094l-3.5,3.5-6.033.389-2.335-1.946-2.919,2.335-6.617.584-2.919-2.725L117.772,7.35l5.06-.584-2.725,22.965,3.5-.389L126.53,6.377l4.866-.389L129.45,28.759l3.5-.389L134.7,5.793a25.727,25.727,0,0,1,5.255-.389Z" data-name="Path 3917" transform="translate(70.816 3.359)"/><path fill="#006bb6" d="M141.049,5.235V21.583h3.114l-.195-16.348s3.309.195,4.866.389l.584,18.1L146.3,26.838h-.973l.195,7.785-5.449-.195V26.643h-1.168l-3.309-3.5.195-18.1C137.741,5.235,141.049,5.235,141.049,5.235Z" data-name="Path 3918" transform="translate(84.322 3.139)"/><path fill="#006bb6" d="M120.641,6.96l-.778,5.449-6.228,1.168-.973,6.033c2.335-.195,3.5-.584,6.228-.973-.389,2.335-.584,3.309-.973,5.449l-6.033.778L110.716,30.9l6.228-.778s-.584,3.892-.778,5.839A92.873,92.873,0,0,0,103.32,37.9s4.476-21.8,5.839-28.609Z" data-name="Path 3919" transform="translate(64.249 4.333)"/><path fill="#006bb6" d="M106.3,37.759l-6.228,1.168,2.919-11.872-1.946-4.282L95.793,39.7,89.76,41.067c2.53-9.147,5.06-18.489,7.59-27.636,2.141-.778,3.7-1.168,5.644-1.946a49.306,49.306,0,0,0,2.335,4.671l1.557-5.839s3.892-.973,5.839-1.557Z" data-name="Path 3920" transform="translate(55.817 5.452)"/><path fill="#006bb6" d="M151.729,11.089l1.752,17.905,3.114.195-1.752-17.711ZM159.9,9.922c.584,7.4,1.946,14.6,2.725,21.408l-2.919,4.087-8.758-.584-3.309-3.5c-.389-7.59-.973-15.18-1.362-22.771.778-.973,2.141-1.946,3.114-2.919l7.4.584Z" data-name="Path 3921" transform="translate(90.963 3.512)"/><path fill="#006bb6" d="M174.6,10.362c1.168,4.282,3.309,13.04,3.309,13.04l2.141.389.973-1.362L178.3,11.53l5.449,1.557,2.919,10.51L185.5,25.543l2.335,2.53,3.7,12.845L185.5,39.556l-2.53-8.953-3.7-.778,1.946,8.953-6.228-1.168C172.852,27.878,168.96,9,168.96,9A48.46,48.46,0,0,1,174.6,10.362Z" data-name="Path 3922" transform="translate(105.067 5.602)"/><path fill="#006bb6" d="M163.742,13.263l.973,7.2,3.309.389-1.362-7.2Zm8.563-.389,1.946,10.51-.973,1.752,1.946,2.53,1.946,10.51-6.033-.973-1.752-8.758-3.5-.389,1.168,8.563-5.839-.778-3.892-29,11.288,1.946Z" data-name="Path 3923" transform="translate(97.829 4.258)"/></svg>