<svg xmlns="http://www.w3.org/2000/svg" width="551.455" height="399.74" data-name="orlando magic" viewBox="0 0 551.455 399.74"><path fill="#c2ccd2" d="M186.166,191.094c29.43-4.583,59.1-3.136,84.913,7.719l3.136-7c-41.733-13.268-94.563-12.785-133.4,8.684l11.1-25.812c-49.452,13.268-82.26,41.251-115.791,69.716C60.484,186.993,113.314,139.953,172.9,122.585L170,132.234c52.347-17.127,109.76-20.5,156.077-12.785l-10.855-14.233,26.777,7L359.129,86.4l6.754,31.843,26.294,8.443s-19.057,7.961-18.334,8.443c99.387,40.768,67.545,176.823-26.777,177.305-47.764.482-84.913-42.7-83.225-87.808C239.237,208.7,215.114,200.985,186.166,191.094Z" data-name="Path 3767" transform="translate(36.491 87.302)"/><path fill="#c2ccd2" d="M122.382,70.909v-.241a14.329,14.329,0,0,1,4.825-9.408,17.69,17.69,0,0,1,9.167-2.895s2.895-.241,5.548-.241l8.684-.724v61.514l-7.478.482c-4.583.241-7.237.483-12.3.724l-8.443.724ZM80.649,69.22a41.354,41.354,0,0,1,9.408-27.5,40.1,40.1,0,0,1,26.294-12.062c20.263-1.689,40.768-2.895,61.032-3.377l14.956-.241V198.521l-.241,14.715-14.956-.241c-2.654,0-22.676.724-26.294.724h-.482l-15.921,1.689v-.482l-10.132.482c-1.447,0-25.571,2.412-26.535,2.654l-17.127,2.895Z" data-name="Path 3768" transform="translate(81.459 26.323)"/><path fill="#c2ccd2" d="M310.211,241.408s-20.022-6.272-22.917-7c-.241,0-.241,0-.241-.241-9.167-2.654-17.369-4.825-23.158-6.513L253.281,225A40.384,40.384,0,0,1,219.75,183.03V70.858c0-10.855,3.377-20.987,11.338-27.259a28.035,28.035,0,0,1,18.092-5.79,55.076,55.076,0,0,1,10.614,1.206c1.447.482,5.307,1.447,11.579,3.136,6.031,1.689,13.75,4.1,21.47,6.272,15.439,4.342,30.636,8.684,30.636,8.684l5.79,1.689v76.229l-48.729-15.2L279.816,115s-1.447-8.926-2.895-17.127v85.4l.241.482s-.241.241,1.447.724c0,0,3.136.724,5.066,1.206,1.447-5.548,2.895-11.579,2.895-11.579l1.93-8.443,40.768,12.062.241,68.992Z" data-name="Path 3769" transform="translate(221.945 38.194)"/><path fill="#c2ccd2" d="M.241,89.468a29.452,29.452,0,0,1,8.926-20.5,40.367,40.367,0,0,1,14.956-9.649c22.435-7.237,54.277-12.062,55.724-12.3L88.291,45.8a41.49,41.49,0,0,1,11.82-4.583c10.855-2.171,44.387-8.443,45.834-8.684l17.369-3.377V204.535l-.241,13.027-13.026,1.447c-.965,0-25.329,4.342-26.535,4.583l-18.092,4.1V199.228L55,211.29V240L43.9,242.65c-.241,0-3.86,1.206-7.719,2.412-4.1,1.206-8.684,2.654-12.062,3.618a20.213,20.213,0,0,0-4.1,1.447L0,257.365V89.468Z" data-name="Path 3770" transform="translate(0 29.475)"/><path fill="#c2ccd2" d="M230.839,222.261h-.482c-.241,0-.482-.241-.724-.241a19.057,19.057,0,0,1-3.136-.724,72.129,72.129,0,0,1-8.684-1.447c-6.031-.965-12.544-2.171-13.026-2.171l-6.031-.482-7-.724V30l15.921,1.206c1.689.241,5.066.724,10.132,1.689,4.825.724,10.614,1.689,14.474,2.412a39.553,39.553,0,0,1,5.79.965l11.1,2.895V226.121Z" data-name="Path 3771" transform="translate(193.728 30.323)"/><path fill="#c2ccd2" d="M230.644,217.455c-1.689-.241-11.82-1.206-22.193-2.171-10.132-.724-20.987-1.447-28.224-1.93l-7.478-.241c-10.855-.482-20.263-3.86-27.018-10.614-6.754-7-9.891-16.4-9.891-27.259V58.484c0-9.167,2.654-17.851,9.167-23.882,7.961-7.478,17.61-8.2,23.641-8.2h6.513c1.93,0,4.583.241,8.443.482h4.342l-.241.241c4.342.241,9.408.724,16.4,1.206,22.676,1.689,28.707,2.412,32.084,3.136a12.141,12.141,0,0,1,3.136.965l8.443,4.1v60.79L199.525,91.05,198.319,85.5s-1.206-6.031-2.412-11.579h-2.171l.241,21.952V100.7h3.377a36.014,36.014,0,0,1,6.272.482c2.895.241,6.513.483,10.132.724,7.478.724,15.68,1.689,19.781,2.171a10.815,10.815,0,0,1,2.895.241l11.579,2.654-.241,113.861Z" data-name="Path 3772" transform="translate(137.234 26.686)"/><path d="M131.288,106.358a46.847,46.847,0,0,1,5.79-.482V66.8a19.648,19.648,0,0,1-2.171.241q-2.533,0-2.895.724c-.482.241-.482.241-.724,1.206ZM83.042,66.8c-.241-19.54,11.82-33.29,31.6-34.737,20.022-1.689,40.527-2.895,60.79-3.377l9.891-.241V205.986l-10.132-.241c-2.654,0-25.571.724-27.259,1.206l-10.855.965V142.542a46.848,46.848,0,0,0-5.79.482v55.724l-.241,9.408-9.167.241c-1.93,0-25.329,2.412-27.018,2.895l-11.579,1.689Z" data-name="Path 3773" transform="translate(83.89 28.747)"/><path d="M309.448,234.394s-17.61-5.548-22.435-6.754c-.483-.241-.724-.241-.965-.482-9.89-2.895-18.816-5.307-24.847-6.754l-9.408-2.412c-19.057-4.342-29.913-18.092-29.671-37.391V68.668c0-10.373,2.895-18.334,9.408-23.641A24.137,24.137,0,0,1,246.486,40.2a45.9,45.9,0,0,1,9.649,1.206c3.136.724,63.444,18.092,63.444,18.092l2.412.482v66.1l-39.8-12.3-.241-1.93s-3.136-19.3-4.342-27.5c-2.412-.724-4.342-1.206-5.548-1.447l-1.206-.482-1.206-.482v98.9a4.781,4.781,0,0,0,.724,2.654,6.269,6.269,0,0,0,4.342,3.136s5.307,1.447,10.132,2.654c1.447-6.513,3.619-16.4,3.619-16.4l.965-3.377,32.566,9.891v58.86Z" data-name="Path 3774" transform="translate(224.397 40.626)"/><path d="M2.52,86.558C3,72.326,15.064,63.641,23.025,60.988c21.952-7,53.553-11.82,55.242-12.062l9.408-1.689a40.92,40.92,0,0,1,11.1-4.342c10.855-2.171,44.145-8.443,45.834-8.926l11.579-1.93V201.384l-.241,8.684-8.684,1.206c-1.93,0-25.329,4.1-27.018,4.583l-12.3,2.654V81.492H107.7c-3.377.965-4.1,1.689-4.825,5.548V191.253L55.108,202.591V93.313a1.191,1.191,0,0,1-.724.241,11.031,11.031,0,0,0-4.825,2.171A3.486,3.486,0,0,0,48.113,99.1V225.266l-.241,7.719-7.478,1.689c-1.689.482-22.676,7-24.123,7.478L2.761,247.218V86.558Z" data-name="Path 3775" transform="translate(2.546 32.384)"/><path d="M229.622,214.77c-1.689-.482-25.088-4.342-26.777-4.583l-6.031-.482-2.895-.241V32.64l10.855.965c2.654.241,27.018,4.342,29.671,5.066l7.478,1.93V217.423Z" data-name="Path 3776" transform="translate(195.91 32.99)"/><path d="M186.606,167.026a12.234,12.234,0,0,0,.482,2.171c.241.241.724.724,3.136.965a16.248,16.248,0,0,1,2.412.241v-33.29a41.869,41.869,0,0,0-4.342-.241l-1.689-.241Zm42.216,43.18c-4.583-.965-36.185-3.377-50.659-4.1l-7.719-.482c-9.89-.241-18.092-3.377-23.641-9.167-5.548-5.548-8.443-13.991-8.443-23.641V56.059c0-8.443,2.412-15.439,7.478-20.5,6.513-6.031,14.956-6.754,20.5-6.754h6.272c4.1,0,11.82.724,28.465,1.93,22.917,1.689,28.948,2.412,31.843,2.895a16.626,16.626,0,0,1,1.93.724l5.789,2.895V89.59L201.08,84.283l-.482-2.171s-1.93-9.408-3.136-15.2h-2.171c-.241,0-6.272-.482-6.272-.482h-.965a2.612,2.612,0,0,0-1.447.241v36.908l8.2-.241h.241c1.93,0,10.614.724,19.3,1.447,8.926.724,16.886,1.689,18.816,1.93l7.719,1.689-.241,104.212Z" data-name="Path 3777" transform="translate(139.78 29.111)"/><path fill="#fff" d="M139.6,58.459v49.694c-4.1.241-12.062.724-16.645.965V65.7c.482-2.895,1.447-6.272,8.684-6.754C131.636,58.942,135.978,58.459,139.6,58.459Zm33.049-25.571V31.2c-20.263.482-40.286,1.447-60.308,3.136C95.21,36.025,85.561,46.4,85.8,63.766V203.68l5.066-.965c1.689-.241,26.294-2.654,27.742-2.895h4.1V134.688c4.1-.241,12.062-.965,16.645-1.206v65.374l5.066-.483c1.206-.241,24.123-1.206,27.5-1.206h.241l2.895.241h1.689V31.2h-4.583Z" data-name="Path 3778" transform="translate(86.678 31.536)"/><path fill="#fff" d="M314.139,180.467l-23.158-6.754-.241,1.689s-2.895,12.544-4.1,18.092c-9.167-2.654-13.268-3.86-15.439-4.342a12.118,12.118,0,0,1-7.961-5.79,14.168,14.168,0,0,1-1.447-5.307V78.426a8.933,8.933,0,0,1,.965-3.618c.483-.724,1.206-.965,2.654-.965a16.6,16.6,0,0,1,3.136.482h.482c.241,0,4.1,1.206,10.855,3.136.965,5.79,4.583,28.224,4.583,28.224v1.206l29.43,8.926V61.54l-1.206-.482s-57.413-16.4-60.549-16.886a35.634,35.634,0,0,0-8.443-1.206,18.426,18.426,0,0,0-11.579,3.618c-5.066,3.86-7.478,10.614-7.478,19.3V177.813C224.4,194.7,233.327,205.8,249.972,209.9h.965c1.93.482,17.851,4.825,33.772,9.167l23.4,7.237,5.548,1.689Z" data-name="Path 3779" transform="translate(226.943 43.411)"/><path fill="#fff" d="M96.948,45.17a31.164,31.164,0,0,0-15.68,8.443V50l-5.066.724c-1.447.241-33.049,5.307-54.277,12.062-6.754,2.412-16.4,9.89-16.645,20.5V236.467l6.031-2.412c1.206-.482,23.4-7.237,24.847-7.719l2.171-.482,1.206-.241V95.829c0-6.513,6.031-9.408,10.132-10.855a75.707,75.707,0,0,1,7.719-1.447V192.563l36.908-8.684V83.285c.965-6.031,3.618-8.925,9.167-10.373h0c.965-.241,4.1-.724,7-1.206V208.725l5.548-1.447c1.206-.241,26.053-4.583,27.742-4.583l2.412-.241h1.689V35.28l-5.307.965S107.8,42.758,96.948,45.17Z" data-name="Path 3780" transform="translate(5.334 35.658)"/><path fill="#fff" d="M201.5,36l-3.136-.241-1.689-.241V201.487l1.447.241,2.654.241c1.206.241,26.053,4.1,27.5,4.583l5.548,1.206V41.551l-3.377-.965C228.281,40.1,203.676,36,201.5,36Z" data-name="Path 3781" transform="translate(198.698 35.9)"/><path fill="#fff" d="M192.382,105.739h-.241l-2.654.241H188.04v23.158h1.447s3.377.241,5.79.482v44.145c-3.618-.482-8.2-.724-8.2-.724a8.8,8.8,0,0,1-7.478-3.86,10.771,10.771,0,0,1-1.206-4.825V64.006a6.315,6.315,0,0,1,1.206-4.1,7.144,7.144,0,0,1,5.548-1.689h1.93c.724,0,4.825.241,12.062.965.965,4.342,3.618,16.4,3.618,16.4l.241.965,29.671,3.86v-42.7l-2.654-1.206c-1.206-.482-2.412-.965-32.084-3.136-17.61-1.447-25.088-1.93-28.465-1.93h-6.031c-4.825,0-11.579.724-16.4,5.307-4.1,3.86-6.031,9.408-6.031,16.645V170.148c0,16.886,9.649,27.018,26.777,27.5h.965c4.342,0,51.865,3.377,58.378,4.583l5.307.965.241-93.357-3.618-.724C226.637,108.634,195.76,105.739,192.382,105.739Z" data-name="Path 3782" transform="translate(142.447 31.778)"/><path fill="#0b77bd" d="M528.861,193.538l-15.439-4.583-4.583,20.022c-9.89-3.136-20.022-5.79-20.022-5.79a16.289,16.289,0,0,1-10.614-8.2,15.847,15.847,0,0,1-1.93-7.237V88.12a10.77,10.77,0,0,1,1.93-6.272c1.447-1.93,4.583-4.1,10.614-2.171a147.109,147.109,0,0,1,14.233,4.1l4.583,29.189,20.987,6.513V74.611s-55.483-15.921-57.9-16.645c-14.715-3.618-22.193,2.412-22.193,17.61V187.507c0,15.2,7.478,24.123,22.193,27.742,0-.241,18.575,4.825,34.5,9.408l23.641,7ZM74.622,73.887V57.242S42.3,62.308,21.069,69.3C15.521,70.992,7.56,77.264,7.56,85.466V232.135c1.689-.724,23.641-7.478,25.329-7.961V98.01c0-8.926,7.237-13.268,13.509-15.2,3.377-.965,13.509-2.412,13.509-2.412V188.954L87.89,182.2V84.984c.965-7.719,5.066-12.785,12.544-14.474,7.237-1.206,12.544-1.93,12.544-1.93v136.3c1.447-.482,26.535-4.583,28.224-4.825V42.527s-34.737,6.513-45.593,8.684A27.947,27.947,0,0,0,74.622,73.887ZM392.083,199.81c1.93,0,26.294,4.1,27.983,4.583V47.351c-1.689-.482-26.294-4.583-27.983-4.583ZM169.185,61.825V196.191c1.93-.241,26.535-2.654,28.465-2.654V128.405c8.443-.724,16.886-1.206,25.329-1.689v65.133c1.93-.241,27.018-1.206,28.707-1.206V33.36c-20.022.482-40.044,1.689-60.067,3.377C176.9,38.185,169.185,46.869,169.185,61.825Zm28.465,1.689c.241-3.136,1.93-10.373,12.544-11.1,4.342-.483,8.443-.724,12.785-.965v58.86c-8.443.482-17.127,1.206-25.571,1.689V63.514ZM327.192,123.1c1.689,0,7.478.482,7.478.482v52.83c-4.342-.241-8.684-.724-13.026-.965-6.272-.482-9.408-3.377-10.855-6.031a13.494,13.494,0,0,1-1.689-7V88.843c0-13.991-.241-24.364-.241-25.329V62.067a11.137,11.137,0,0,1,2.412-7c2.171-2.412,5.79-3.618,10.614-3.136,0-.241,7.237.483,15.921,1.206l3.86,17.61,21.47,2.895V38.908c-1.689-.724-59.825-5.307-59.825-4.583h-.965c-4.825-.241-12.3-.483-17.127,3.86-3.136,2.895-4.583,7.478-4.583,13.509V168.208c0,14.956,7.478,22.435,22.676,23.158,0-.482,52.347,3.136,59.825,4.583,0-1.689.241-82.5.241-84.19-1.93-.241-34.014-3.377-35.7-3.377V123.1Z" data-name="Path 3783" transform="translate(7.638 33.718)"/><path fill="#0b77bd" d="M74.622,73.458V56.813S42.3,61.878,21.069,68.874C15.521,70.563,7.56,76.835,7.56,85.037V231.705c1.689-.724,23.641-7.478,25.329-7.961V97.581c0-8.684,7.237-13.268,13.509-15.2,3.377-.965,13.509-2.412,13.509-2.412V188.525l27.983-6.754V84.554A15.667,15.667,0,0,1,100.434,70.08c7.237-1.206,12.544-1.93,12.544-1.93v136.3c1.447-.482,26.535-4.583,28.224-4.825V42.1s-34.737,6.513-45.593,8.684A27.947,27.947,0,0,0,74.622,73.458ZM392.083,199.38c1.93,0,26.294,4.1,27.983,4.583V46.681c-1.689-.482-26.294-4.342-27.983-4.583Zm-64.891-76.712c1.689,0,7.478.482,7.478.482v52.83c-4.342-.241-8.684-.724-13.026-.965-6.272-.482-9.408-3.377-10.855-6.031a14.449,14.449,0,0,1-1.93-7V88.414c0-13.991-.241-24.364-.241-25.329V61.637a11.136,11.136,0,0,1,2.412-7c2.171-2.412,5.79-3.618,10.614-3.136,0-.241,7.237.483,15.921,1.206l3.86,17.61,21.47,2.895V38.479c-1.93-.724-59.825-5.307-59.825-4.583h-1.206c-4.342-.241-12.062-.483-16.886,3.86-3.136,2.895-4.583,7.478-4.583,13.509V167.779c0,14.715,7.478,22.435,22.676,23.158,0-.482,52.347,3.136,59.825,4.583v-84.19c-1.689-.241-33.772-3.377-35.7-3.377Z" data-name="Path 3784" transform="translate(7.638 34.147)"/><path d="M98.618,40.394a.857.857,0,0,1-.482.724c-.241.482-.965.724-1.93.965a11.9,11.9,0,0,0-3.618.724H92.1c-.482,0-.482-.241-.482-.241a.236.236,0,0,0-.241-.241v-27.5s0-.241.482-.724a3.369,3.369,0,0,1,1.93-.965c.965,0,2.171-.482,3.136-.482.241,0,.482-.241.724-.241a1.056,1.056,0,0,1,.724.241.236.236,0,0,1,.241.241Zm9.649-33.772a4.8,4.8,0,0,0-2.895-1.93,5.194,5.194,0,0,0-2.654-.482,18.621,18.621,0,0,0-3.618.482c-2.895.482-6.031,1.206-8.926,1.447a16.146,16.146,0,0,0-5.79,2.171,9.259,9.259,0,0,0-2.654,2.654,9.978,9.978,0,0,0-1.206,4.583V44.736a6.315,6.315,0,0,0,1.206,4.1,4.8,4.8,0,0,0,2.895,1.93H86.8c1.447,0,2.654-.241,3.86-.241,3.136-.724,6.031-1.206,9.167-1.689a32.558,32.558,0,0,0,5.79-1.93,13.761,13.761,0,0,0,2.654-2.654,7.443,7.443,0,0,0,1.206-4.342V10.722a5.575,5.575,0,0,0-1.206-4.1Z" data-name="Path 3785" transform="translate(81.341 4.25)"/><path d="M177.025,4.823a6.417,6.417,0,0,0-2.654-2.412A16.6,16.6,0,0,0,168.341.964C162.31.481,156.279.24,150.49.24h-1.93V44.385h1.689c2.654.241,5.307.241,7.961.482H159.9V7.718c1.206,0,2.412.241,3.618.241,4.342.482,3.618,1.93,3.86,2.171V45.109h1.447c2.654.241,5.066.482,7.719.724l1.689.241V8.924a5.2,5.2,0,0,0-1.206-4.1Z" data-name="Path 3786" transform="translate(150.085 .258)"/><path d="M184.532,39.8a13.6,13.6,0,0,1-1.689.241,1.808,1.808,0,0,1-1.206-.241,21.235,21.235,0,0,1-4.1-.483V10.126c1.206,0,2.412.241,3.618.241a8.138,8.138,0,0,1,2.895.965c.724.482.965.724.965,1.93V38.591C184.774,39.556,184.774,39.556,184.532,39.8ZM194.905,7.954A10,10,0,0,0,192.011,5.3a13.629,13.629,0,0,0-5.79-1.689c-2.412-.483-14.715-1.93-17.851-2.171L166.44,1.2V45.828h1.447c6.031.724,12.062,1.447,17.851,2.171a10.818,10.818,0,0,0,2.654.241,10.706,10.706,0,0,0,3.136-.482,6.927,6.927,0,0,0,3.136-1.93,7.227,7.227,0,0,0,1.447-4.342V12.3a9.029,9.029,0,0,0-1.206-4.342Z" data-name="Path 3787" transform="translate(168.148 1.228)"/><path d="M116.134,19.654a2.382,2.382,0,0,1-.482,1.447,14.207,14.207,0,0,1-3.136,1.206,14.238,14.238,0,0,0-3.377.482V10.246A21.114,21.114,0,0,0,113,9.763h1.689c.965,0,1.447,0,1.447.241.241.241,0,0,.241.482v7.478a5.433,5.433,0,0,0-.241,1.689Zm11.338,23.882V28.821a4.739,4.739,0,0,0-2.171-4.1c-.241,0-.241-.241-.724-.241A5.578,5.578,0,0,0,127.23,19.9V8.557a7.226,7.226,0,0,0-1.447-4.342,6.151,6.151,0,0,0-2.895-1.93A14.6,14.6,0,0,0,119.27,1.8a9.05,9.05,0,0,0-2.412.241c-5.79.724-11.82,1.447-17.61,2.171L97.8,4.456V48.843l1.93-.241a74.97,74.97,0,0,1,7.719-.965L108.9,47.4V30.027a24.041,24.041,0,0,0,3.86-.482H114.2a2.307,2.307,0,0,1,1.689.483c.241,0,.241.241.241.965V46.431l2.171-.241c2.412-.241,5.066-.482,7.478-.724l1.689-.241Z" data-name="Path 3788" transform="translate(98.804 1.831)"/><path d="M140.649,34.855v-5.79h-1.689l-6.754.482-2.654,7.961h-2.895V.6h-1.93c-2.412.241-5.307.483-7.719.724H115.32V45.952l1.93-.241c7.237-.482,14.715-.965,21.952-1.206h1.447Z" data-name="Path 3789" transform="translate(116.503 .622)"/><path d="M149.377,20.512H141.9V8.933c0-.241,0-.482.482-.965a6.848,6.848,0,0,1,3.377-.724h3.618Zm9.649-20.5H140.934A15.076,15.076,0,0,0,134.9.973a9.116,9.116,0,0,0-2.895,2.171,7.423,7.423,0,0,0-1.447,4.583V44.636h1.93c2.412,0,5.066-.241,7.719-.241H141.9V27.749h7.478v16.4h1.689c2.412,0,5.307,0,7.719.241h1.93V.008Z" data-name="Path 3790" transform="translate(131.899 .008)"/><path d="M201.815,42.322h0v.241a1.056,1.056,0,0,1-.724.241.886.886,0,0,1-.724-.241,16.413,16.413,0,0,0-3.618-.482c-.965-.241-1.689-.724-1.689-1.206a.747.747,0,0,1-.241-.482V12.651h1.689c.965.241,2.171.482,3.136.724a3.6,3.6,0,0,1,1.93.724.851.851,0,0,1,.241.965Zm9.89-31.119a6.977,6.977,0,0,0-2.654-2.654,16.5,16.5,0,0,0-5.79-2.412c-2.895-.482-6.031-1.206-8.926-1.689a17.089,17.089,0,0,0-3.377-.241,9.046,9.046,0,0,0-2.654.241,6.582,6.582,0,0,0-3.136,1.689,7.942,7.942,0,0,0-1.447,4.583V39.91a7.443,7.443,0,0,0,1.206,4.342,9.259,9.259,0,0,0,2.654,2.654,23.191,23.191,0,0,0,5.79,1.93c3.136.482,6.031.965,8.926,1.689a24.055,24.055,0,0,0,3.86.482,6.679,6.679,0,0,0,2.171-.241,5.045,5.045,0,0,0,3.136-1.689,6.585,6.585,0,0,0,1.206-4.342V15.545a9.462,9.462,0,0,0-.965-4.342Z" data-name="Path 3791" transform="translate(185.603 4.251)"/><path fill="#fff" d="M106.809,135.316l5.548-2.654,4.825,4.1-.965-6.031,5.307-3.136-6.031-1.206-1.447-6.031-2.895,5.548-6.031-.724,4.342,4.583Z" data-name="Path 3792" transform="translate(106.199 121.611)"/><path d="M357.892,128.825c5.548-2.412,15.68-6.754,15.68-6.754l.724-.241-.724-.241s-16.4-5.548-19.781-6.513c-.724-3.86-3.136-21.711-3.136-21.711l-.241-.724-6.031,9.649s-3.377,5.548-5.307,8.443c-3.86-1.206-20.746-5.307-20.746-5.307l-.965-.482.724.965s6.754,8.684,10.855,14.233a267.932,267.932,0,0,0-59.1-5.79c-7.478,0-15.2.241-23.4.724a327.725,327.725,0,0,0-89.979,18.092l3.377-10.132-.724.241c-45.352,14.233-95.045,56.931-117,98.9l.482.241c30.878-28.948,73.093-52.347,110.725-60.79l-9.89,22.917.724-.241c17.369-8.443,40.527-12.062,63.685-12.062,23.882,0,47.764,3.86,66.339,10.614l-7,15.439c-16.886-7.719-41.251-12.785-61.755-12.785-3.618,0-7,0-10.373.241v.724c24.123,6.754,48.729,14.474,68.51,30.154a35.635,35.635,0,0,0-.241,5.066c0,41.251,35.7,78.883,77.918,78.883h.965c46.075-.482,80.571-42.939,80.571-87.326C422.542,180.931,403.967,147.4,357.892,128.825Z" data-name="Path 3793" transform="translate(42.552 93.606)"/><path fill="#c2ccd2" d="M215.82,154.744c-16.886,0-34.255-6.272-51.382-12.544a69.33,69.33,0,0,0-6.755,29.913,63.528,63.528,0,0,0,1.93,16.4h4.342a194.477,194.477,0,0,0,96.734-26.053,167.153,167.153,0,0,0-11.579-17.369A60.755,60.755,0,0,1,215.82,154.744Z" data-name="Path 3794" transform="translate(159.295 143.675)"/><path fill="#c2ccd2" d="M160.806,181.7H159.6c10.373,27.018,34.255,44.628,63.2,45.11,9.408-22.917,19.54-47.764,43.18-59.584-1.206-3.86-2.654-7.961-4.342-12.062A200.089,200.089,0,0,1,160.806,181.7Z" data-name="Path 3795" transform="translate(161.238 156.768)"/><path fill="#c2ccd2" d="M224.936,138a81.55,81.55,0,0,0-17.369-5.307c-2.895.482-7,.724-10.132,1.206,17.61,7,30.636,15.439,43.422,30.154A64.134,64.134,0,0,0,257.5,145.474c-11.82-11.579-34.255-25.812-90.462-30.154,23.641,5.548,45.352,13.268,58.137,22.193Z" data-name="Path 3796" transform="translate(168.754 116.519)"/><path fill="#c2ccd2" d="M117.72,125.671h11.1c39.8,0,101.076,4.583,124.958,32.807l-.482.482c-8.2-4.342-24.606-12.062-34.979-12.062h-.724a82.447,82.447,0,0,0-9.649,12.544c15.921,6.031,32.084,11.82,48.005,11.82a55.584,55.584,0,0,0,29.913-8.2c-27.742-30.154-74.3-43.422-118.445-43.422a219,219,0,0,0-49.694,6.031Z" data-name="Path 3797" transform="translate(118.928 120.883)"/><path fill="#c2ccd2" d="M217.139,169.39a96.558,96.558,0,0,0,20.5-17.851,70.893,70.893,0,0,0-15.2-19.3,68.6,68.6,0,0,1-16.886,19.54A105.614,105.614,0,0,1,217.139,169.39Z" data-name="Path 3798" transform="translate(207.669 133.613)"/><path fill="#c2ccd2" d="M194.4,217.23a69.84,69.84,0,0,0,37.632-15.68,72.439,72.439,0,0,0,2.412-19.057,91.865,91.865,0,0,0-1.689-18.092C211.527,174.532,202.843,196.725,194.4,217.23Z" data-name="Path 3799" transform="translate(196.395 166.103)"/><path fill="#c2ccd2" d="M218.654,189.867v6.272A74.8,74.8,0,0,0,233.61,161.16,87.814,87.814,0,0,0,216,164.778a110.9,110.9,0,0,1,2.654,25.088Z" data-name="Path 3800" transform="translate(218.217 162.829)"/><path fill="#c2ccd2" d="M212.88,162.086c1.689,4.1,3.377,8.443,5.066,12.785a90,90,0,0,1,19.54-3.618v-1.447a66.194,66.194,0,0,0-4.342-24.606A123.447,123.447,0,0,1,212.88,162.086Z" data-name="Path 3801" transform="translate(215.065 146.706)"/><path fill="#c2ccd2" d="M237.607,171.253a92.141,92.141,0,0,0-19.781,3.618,117.388,117.388,0,0,0-5.066-12.785,127.384,127.384,0,0,0,20.5-16.886,78.869,78.869,0,0,1,4.342,24.606Z" data-name="Path 3802" transform="translate(214.943 146.706)"/><path fill="#c2ccd2" d="M222.325,132.12a76.276,76.276,0,0,1,15.2,19.54,102.712,102.712,0,0,1-20.5,17.61A165.035,165.035,0,0,0,205.68,151.9,69.291,69.291,0,0,0,222.325,132.12Z" data-name="Path 3803" transform="translate(207.791 133.491)"/><path fill="#c2ccd2" d="M167.16,115.2c55.966,4.342,78.4,18.816,90.462,30.154a64.5,64.5,0,0,1-16.645,18.575,109.1,109.1,0,0,0-43.422-29.913,75.319,75.319,0,0,1,9.891-1.447,136.785,136.785,0,0,1,17.61,5.307l.241-.482C212.512,128.468,190.8,120.748,167.16,115.2Z" data-name="Path 3804" transform="translate(168.875 116.398)"/><path fill="#c2ccd2" d="M163.955,188.516h-4.342a65.364,65.364,0,0,1-1.93-16.645,68.3,68.3,0,0,1,6.754-29.671c17.127,6.272,34.255,12.544,51.382,12.544a62.843,62.843,0,0,0,33.29-9.649,101.7,101.7,0,0,1,11.579,17.127,194.717,194.717,0,0,1-96.734,26.294Z" data-name="Path 3805" transform="translate(159.295 143.675)"/><path fill="#c2ccd2" d="M222.8,226.806c-28.948-.482-52.83-18.092-63.2-45.11h1.206A200.734,200.734,0,0,0,261.641,155.16a102.385,102.385,0,0,1,4.342,12.062C242.342,179.042,231.969,203.889,222.8,226.806Z" data-name="Path 3806" transform="translate(161.238 156.768)"/><path fill="#c2ccd2" d="M218.654,196.139v-6.272A110.9,110.9,0,0,0,216,164.778a84.49,84.49,0,0,1,17.61-3.618A72.745,72.745,0,0,1,218.654,196.139Z" data-name="Path 3807" transform="translate(218.217 162.829)"/><path fill="#c2ccd2" d="M285.858,162.942a54.794,54.794,0,0,1-29.671,8.2c-16.162,0-32.325-5.79-48.005-11.82a81.071,81.071,0,0,1,9.408-12.544h.965c10.132,0,26.777,7.478,34.979,12.062l.482-.482c-23.882-28.224-85.155-32.807-124.958-32.807H117.72a208.325,208.325,0,0,1,49.935-5.79C211.559,119.762,258.358,132.788,285.858,162.942Z" data-name="Path 3808" transform="translate(118.928 121.003)"/><path fill="#c2ccd2" d="M232.032,201.55A69.84,69.84,0,0,1,194.4,217.23c8.443-20.5,17.127-42.7,38.115-52.83a92.231,92.231,0,0,1,1.93,18.092A72.439,72.439,0,0,1,232.032,201.55Z" data-name="Path 3809" transform="translate(196.395 166.103)"/><path fill="#c2ccd2" d="M186.732,128.915l12.3-4.1,9.167,10.373-.965-13.75,11.82-5.066-13.027-4.342L204.1,98.52l-6.754,11.1-13.026-3.377,8.684,11.1Z" data-name="Path 3810" transform="translate(186.212 99.546)"/><path fill="#fff" d="M154.815,130.077l8.443-4.342,7,6.513-1.447-9.408,8.2-4.825-9.408-1.447-1.93-9.408-4.342,8.443-9.408-.965,6.513,6.754Z" data-name="Path 3811" transform="translate(153.479 108.275)"/><path fill="#fff" d="M106.809,135.316l5.548-2.654,4.583,4.1-.724-6.031,5.307-3.136-6.272-1.206-1.206-6.031-2.895,5.548-6.031-.724,4.1,4.583Z" data-name="Path 3812" transform="translate(106.199 121.611)"/><path fill="#0b77bd" d="M223.571,170.165V169.2l-7.719,13.026,2.171-11.579-.482-.241C205.961,184.4,201.618,194.288,198,206.591v.724l.482-.241a76.012,76.012,0,0,0,22.435-11.82c1.93-4.1,2.654-12.544,2.654-22.917Z" data-name="Path 3813" transform="translate(200.032 170.952)"/><path fill="#0b77bd" d="M235.464,162.319a224.571,224.571,0,0,1-40.768,4.1,44.607,44.607,0,0,1-5.79-.241l28.707-8.684v-.482c-19.057-.965-33.772-1.206-52.347-9.89l-.241-.241-.241.241a42.688,42.688,0,0,0-4.342,19.057A38.923,38.923,0,0,0,162.13,178H164.3c8.2,0,42.457-.724,71.163-15.2Z" data-name="Path 3814" transform="translate(162.085 148.403)"/><path fill="#0b77bd" d="M237.977,169.837c-14.474,10.855-25.571,19.54-46.8,23.4,19.781-10.132,33.049-17.369,45.593-30.154l-.482-.483c-22.193,13.026-51.141,18.575-71.4,19.3h-.724l.482.482c16.645,26.535,37.873,28.948,44.869,28.948h2.412v-.241c9.167-14.233,14.956-27.983,26.535-41.009Z" data-name="Path 3815" transform="translate(165.845 164.284)"/><path fill="#fff" fill-rule="evenodd" d="M195.016,122.887a9.143,9.143,0,0,0-3.136-1.447c17.127,5.066,28.707,11.579,35.22,16.645a27.774,27.774,0,0,1-3.377,4.1,88.443,88.443,0,0,0-28.707-19.3Zm52.83,96.251v-1.206a66.971,66.971,0,0,0,1.689-13.75,10,10,0,0,1,3.86-.724,86.338,86.338,0,0,1-5.548,15.68Zm7.237-30.154a42.979,42.979,0,0,0-6.272.965,65.45,65.45,0,0,0-2.171-9.891,37.291,37.291,0,0,0,6.513-5.79,49.287,49.287,0,0,1,1.93,14.715ZM247.6,160.761c-2.171,1.93-3.86,3.86-5.79,5.548a66.985,66.985,0,0,0-7.237-12.785c1.447-1.93,2.895-3.618,4.1-5.548A61.362,61.362,0,0,1,247.6,160.761Z" data-name="Path 3816" transform="translate(193.849 122.702)"/></svg>