<svg xmlns="http://www.w3.org/2000/svg" width="391.896" height="334.129" data-name="portland trail blazers" viewBox="0 0 391.896 334.129"><path d="M220.829,45.544a60.444,60.444,0,0,0-8.623-10.381,49.816,49.816,0,0,0-4.353-3.935L239.163,0h-91L113,35.163l-.084.084a77.712,77.712,0,0,0-8.623,10.381A71.664,71.664,0,0,0,97.843,57.6a70.168,70.168,0,0,0,0,54.586,67.768,67.768,0,0,0,6.446,11.888,60.444,60.444,0,0,0,8.623,10.381,39.929,39.929,0,0,0,4.353,4.019L86.039,169.7h91l35.246-35.33a68.925,68.925,0,0,0,14.986-22.186,70.168,70.168,0,0,0,0-54.586,61.9,61.9,0,0,0-6.446-12.056Z" data-name="Path 3865" transform="translate(39.542)"/><path fill="#fff" d="M203.757,28.167c-1.34-1.423-2.846-2.763-4.27-4.019L161.311,62.492a12.242,12.242,0,0,1,5.191,3.014,11.928,11.928,0,0,1,0,16.66L95.675,152.994h8.372L170.6,86.353a17.763,17.763,0,0,0,.167-24.949l4.1-4.1a23.42,23.42,0,0,1-.052,33.122l-.032.032-62.456,62.539h8.288l58.353-58.353a29.51,29.51,0,0,0,.084-41.525l4.1-4.1a35.194,35.194,0,0,1-.042,49.772l-.042.042-54.167,54.167H137.2l50.065-50.065a41.106,41.106,0,0,0,.084-58.1l4.186-4.186a47.044,47.044,0,0,1-.167,66.474l-45.879,45.879h8.372l41.693-41.777a52.778,52.778,0,0,0,.123-74.64l-.039-.039,4.186-4.186a58.716,58.716,0,0,1-.167,83.051l-37.507,37.591h8.288l33.4-33.4a64.805,64.805,0,0,0-.084-91.423Z" data-name="Path 3866" transform="translate(43.971 11.098)"/><path fill="#cf0a2c" d="M113.353,128.728a47.537,47.537,0,0,0,4.27,3.935L155.8,94.486a11.328,11.328,0,0,1-5.191-3.014,11.773,11.773,0,0,1-.01-16.65l.01-.01L221.437,3.9h-8.288L146.423,70.626a17.686,17.686,0,0,0-.084,24.949l-4.186,4.1a23.346,23.346,0,0,1,.029-33.016l.139-.137L204.861,3.9h-8.288L138.134,62.337a29.434,29.434,0,0,0-.084,41.525l-4.186,4.1a35.347,35.347,0,0,1,.084-49.814L188.283,3.9H180L129.847,54.049a41.106,41.106,0,0,0-.084,58.1l-4.186,4.186a47.12,47.12,0,0,1,.084-66.474L171.623,3.9h-8.288l-41.777,41.86a52.854,52.854,0,0,0-.167,74.679l-4.1,4.186a58.716,58.716,0,0,1,.069-83.036l.014-.014L155.046,3.9h-8.288L113.186,37.472a64.527,64.527,0,0,0,.167,91.255Z" data-name="Path 3867" transform="translate(43.371 1.793)"/><path d="M61.739,215.315H57.3v-4.52H71.2v4.52h-4.52V237.25H61.739Z" data-name="Path 3868" transform="translate(26.335 96.879)"/><path d="M71.209,210.795H82.176l3.265,3.265v9.209l-2.763,2.6,2.93,11.3H80.669l-2.763-10.8H76.065V237.25h-4.94V210.795Zm8.2,11.888,1-1.172v-5.777l-1-1.172H76.149v8.121Z" data-name="Path 3869" transform="translate(32.688 96.879)"/><path d="M89.051,210.795h7.116l4.019,26.455H95.33l-.67-6.112h-4.27l-.753,6.112H84.949Zm1.758,16.242h3.181L92.4,213.893Z" data-name="Path 3870" transform="translate(39.041 96.879)"/><path d="M99.231,233.483h2.931V214.562H99.231v-3.767h10.8v3.767h-2.846v18.921h2.846v3.767h-10.8Z" data-name="Path 3871" transform="translate(45.605 96.879)"/><path d="M111.334,210.795h5.022v22.1h5.611v4.354H111.334Z" data-name="Path 3872" transform="translate(51.168 96.879)"/><path d="M130.262,210.795h10.8l3.181,3.265v7.033l-2.6,2.6,2.6,2.6v7.7l-3.181,3.181h-10.8Zm7.786,11.051,1.256-1.256V215.9l-1.088-1H135.2v7.033h2.846Zm.167,11.47,1.088-1v-5.442l-1.256-1.172h-2.93v7.535h3.1Z" data-name="Path 3873" transform="translate(59.867 96.879)"/><path d="M144.889,210.795h4.856v22.1h5.777v4.354H144.889Z" data-name="Path 3874" transform="translate(66.589 96.879)"/><path d="M159.863,210.795h7.2l4.018,26.455h-4.856l-.753-6.112h-4.186l-.753,6.112h-4.688Zm1.926,16.242h3.181L163.3,213.893Z" data-name="Path 3875" transform="translate(71.624 96.879)"/><path d="M170.127,233.651l6.781-18.335h-6.613v-4.52h11.972v3.516l-6.7,18.419h6.7v4.52H170.127Z" data-name="Path 3876" transform="translate(78.188 96.879)"/><path d="M183.147,210.795h11.637v4.352h-6.613v6.447H194.2v4.354h-6.028V232.9h6.7v4.354H183.147Z" data-name="Path 3877" transform="translate(84.172 96.879)"/><path d="M196.111,210.795h10.967l3.265,3.265v9.209l-2.6,2.6,2.846,11.386h-4.939l-2.679-10.8H201.05v10.8h-4.939Zm8.2,11.888,1-1.172v-5.777l-1-1.172h-3.265v8.121Z" data-name="Path 3878" transform="translate(90.13 96.879)"/><path d="M210.336,234.068V229.3h4.855v2.763l1.173,1.172h1.757l1-1.172v-5.024l-.836-.836H213.1l-2.68-2.848V214.06l3.182-3.265h7.283l3.182,3.265v4.688h-4.941v-2.763l-1-1.089h-1.674l-1.172,1.089v4.939l.921.753h5.19l2.68,2.763v9.627l-3.182,3.182h-7.368Z" data-name="Path 3879" transform="translate(96.668 96.879)"/><path d="M53.414,147.765c0-15.321-8.288-20.428-24.446-20.428H0l12.642,12.642v92.344H28.3V186.276h.837c15.823,0,24.028-4.856,24.446-19.423V147.765ZM28.3,139.979h3.516c3.6,0,5.944,1.172,5.944,5.191v22.772c0,3.851-1.088,5.777-6.614,5.777H28.465v-33.74Z" data-name="Path 3880" transform="translate(0 58.523)"/><path d="M56.84,146.342c0-5.274,1.674-6.446,4.856-6.446,3.1,0,4.688,1.172,4.688,6.446v66.893c0,5.358-1.674,6.446-4.688,6.446-3.181,0-4.856-1.088-4.856-6.446Zm4.688,85.9c9.712,0,20.428-3.935,20.428-17.581V145c0-13.73-10.8-17.665-20.428-17.665-9.544,0-20.344,3.935-20.344,17.665v69.655C41.184,228.3,51.984,232.239,61.528,232.239Z" data-name="Path 3881" transform="translate(18.928 58.522)"/><path d="M190.313,145.839h.921l3.014,40.353H186.8ZM185.29,198.75h10.3l3.349,33.489h15.739l-11.888-104.9H179.262l-11.888,104.9h14.149Z" data-name="Path 3882" transform="translate(76.923 58.522)"/><path d="M265.817,211.9c0,6.781-1.926,7.786-5.944,7.786h-3.767v-79.7h3.767c3.935,0,5.944,1.088,5.944,7.786Zm15.572,1.34V151.114c0-18.5-6.53-23.777-22.019-23.777H240.449v104.9h22.186c12.307,0,18.753-9.042,18.753-19Z" data-name="Path 3883" transform="translate(110.507 58.522)"/><path d="M89.3,139.9h3.767c3.516,0,5.944,1.172,5.944,5.191V166.77c0,3.851-1.172,6.781-6.7,6.781H89.3Zm.251,46.214c7.284-.335,9.628,2.177,9.628,8.456v37.674h15.153s.335-11.3,0-41.609c-.084-9.46-6.028-10.884-6.028-10.884,6.865-2.93,6.028-6.363,6.028-14.149l-.084-20.344c0-13.563-7.367-17.916-19.926-17.916H73.649v104.9H89.472v-46.13Z" data-name="Path 3884" transform="translate(33.848 58.522)"/><path d="M174.072,219.681H154.147V127.337h-15.74v104.9h35.665Z" data-name="Path 3885" transform="translate(63.61 58.522)"/><path d="M120.927,139.978v92.26h15.656v-92.26h13.479V127.337h-51.4l12.725,12.641Z" data-name="Path 3886" transform="translate(45.342 58.522)"/><path d="M218.519,174.053l17.665,58.186h14.232v-104.9H236.268v58.856l-17.749-58.856H204.37v104.9h14.149Z" data-name="Path 3887" transform="translate(93.926 58.522)"/></svg>