<svg xmlns="http://www.w3.org/2000/svg" width="296.79" height="338.056" data-name="sacramento kings" viewBox="0 0 296.79 338.056"><path fill="#fff" d="M296.789,0,254.314,42.642l-35.5-35.454L183.152,42.646,147.713,7.188,112.287,42.642,76.837,7.188,41.419,42.662,0,.85V189.66a148.4,148.4,0,1,0,296.79,0Z" data-name="Path 3747"/><path fill="#63727a" d="M3.336,54.273A135.814,135.814,0,0,0,24,103.983C30.173,93.158,42.519,79.712,66.771,74c-1.862-6.223-3.522-12.847-4.932-19.725Z" data-name="Path 3748" transform="translate(9.912 161.251)"/><path fill="#63727a" d="M10.976,91.755A137.547,137.547,0,0,0,114.709,140.44c-3.753-1.918-7.422-4.027-10.956-6.3-16.861-10.9-40.049-32.118-55.02-71.448-23.565,5.139-33.54,18.493-37.757,29.061" data-name="Path 3749" transform="translate(32.611 186.271)"/><path fill="#63727a" d="M24.14,62.6a126.447,126.447,0,0,0,47.753,61.02,107.432,107.432,0,0,0,36.089,15.15A137.794,137.794,0,0,0,167.616,108C154.182,106.529,140.4,98.8,125.86,90.641,103.149,77.9,74.871,62.033,36.693,62.033c-4.126,0-8.335.2-12.553.564" data-name="Path 3750" transform="translate(71.723 184.307)"/><path fill="#5a2d81" d="M75.332,36.776h-49.1V95.231h20.4V48.34H61.953V95.231H81.392V44.96c0-4.452-2.724-8.184-6.06-8.184" data-name="Path 3751" transform="translate(77.941 109.266)"/><path fill="#5a2d81" d="M42.287,36.776V86.919c0,4.464,2.7,8.312,6.028,8.312H97.362V59.741l-19.582-.024V83.651H62.464V48.058h34.9V36.776Z" data-name="Path 3752" transform="translate(125.639 109.266)"/><path fill="#5a2d81" d="M40.849,36.776,29.758,60.38H23.348v-23.6H3.044V95.231h20.3V71.71h6.409L40.849,95.231H61.133L46.825,66.043,61.133,36.776Z" data-name="Path 3753" transform="translate(9.044 109.266)"/><rect width="21.015" height="58.455" fill="#5a2d81" data-name="Rectangle 4" transform="translate(75.578 146.042)"/><path fill="#5a2d81" d="M112.025,52.585V36.776H58.137V63.482c0,4.452,2.7,8.069,6.024,8.069H91.617V84.29H58.137v10.94h53.916V68.4c0-4.154-2.3-8.053-5.381-8.053H78.362V48.106H92.523v4.479Z" data-name="Path 3754" transform="translate(172.731 109.266)"/><path fill="#5a2d81" d="M218.378,68.5H201.172l35.49-35.506L209.769,6.145,174.109,41.6,138.67,6.145,76.36,68.5h-17.2l35.43-35.561L67.794,6.145,32.372,41.6,3.045,12.483V117.058h272.66V11.133Z" data-name="Path 3755" transform="translate(9.047 18.257)"/><path fill="#fff" d="M18.044,45.329a2.757,2.757,0,0,0,2.744,2.752H36.113V43.967H23.623V30.612H36.113V26.506H18.044Z" data-name="Path 3756" transform="translate(53.611 78.752)"/><path fill="#fff" d="M24.243,38.34H17.329V30.624h6.914ZM11.754,26.514V48.089h5.575V42.446h6.914v5.643h5.575V29.262a2.814,2.814,0,0,0-3.062-2.748Z" data-name="Path 3757" transform="translate(34.922 78.744)"/><path fill="#fff" d="M77.107,43.935h-6.89V30.612h6.89ZM79.97,26.506H67.33a2.738,2.738,0,0,0-2.736,2.732V45.329a2.755,2.755,0,0,0,2.736,2.752H79.97a2.764,2.764,0,0,0,2.736-2.76V29.238a2.738,2.738,0,0,0-2.736-2.732" data-name="Path 3758" transform="translate(191.916 78.752)"/><path fill="#fff" d="M5.458,36.6A2.754,2.754,0,0,0,8.21,39.345h9.737v4.622H5.458v4.114H23.527v-10.1a2.735,2.735,0,0,0-2.45-2.728l-.155-.012H11.029V30.612h12.5V26.506H5.458Z" data-name="Path 3759" transform="translate(16.216 78.752)"/><path fill="#fff" d="M43,38.332H36.09V30.616H43Zm2.819-11.826H30.511V48.081H36.09V42.438H43v5.643h5.583V29.254a2.765,2.765,0,0,0-2.764-2.748" data-name="Path 3760" transform="translate(90.652 78.752)"/><path fill="#fff" d="M58.474,30.608h6.258V48.081H70.3V30.608h6.251v-4.1H58.474Z" data-name="Path 3761" transform="translate(173.733 78.752)"/><path fill="#fff" d="M64.664,26.506H36.926V48.081h5.579V30.616h6.838V48.081H55V30.616h6.834V48.081h5.575V29.254a2.758,2.758,0,0,0-2.744-2.748" data-name="Path 3762" transform="translate(109.711 78.752)"/><path fill="#fff" d="M67.816,26.506H52.5V48.081h5.571V30.616h6.918V48.081h5.575V29.254a2.757,2.757,0,0,0-2.752-2.748" data-name="Path 3763" transform="translate(155.992 78.752)"/><path fill="#fff" d="M46.515,45.329a2.752,2.752,0,0,0,2.745,2.752H64.568V43.967H52.094V39.341H64.568v-4.1H52.094v-4.63H64.568V26.506H46.515Z" data-name="Path 3764" transform="translate(138.201 78.752)"/><path fill="#fff" d="M36.7,36.135H29.781V30.62H36.7Zm2.6,4.1h2.982V29.257a2.826,2.826,0,0,0-3.062-2.744h-15V48.088h5.571V40.238h4.047l3.336,7.851H42.6Z" data-name="Path 3765" transform="translate(71.931 78.745)"/><path fill="#63727a" d="M40.892,70.822c29.049-.592,57.78,6.683,94.437,27.571,27.095,15.44,39,20.122,47.121,18.124,7.49-1.843,14.431-6.262,26.682-32.158a134.771,134.771,0,0,0,9.67-30.081l-197.078,0c1.37,5.969,2.716,11.909,4.523,17.37a131.693,131.693,0,0,1,14.645-.822" data-name="Path 3766" transform="translate(64.541 161.254)"/></svg>